
<?xml version="1.0" encoding="UTF-8"?>
<svg id="Layer_2" data-name="Layer 2" xmlns="http://www.w3.org/2000/svg" viewBox="0 0 1773.47 1639.94">
  <defs>
    <style>
      .cls-1 {
        fill: #026cff;
      }

      .cls-2 {
        fill: #015ad4;
      }
    </style>
  </defs>
  <g id="Layer_2-2" data-name="Layer 2">
    <path class="cls-1" d="M1487.77,1550.69c-97.57,49.96-305.21,96.43-492,29-66.12-23.87-69.24-40.21-126-55-215.95-56.26-354.84,132.29-476,114C146.49,1601.35-249.21,668.9,214.77,214.69,595.37-157.92,1363-21.26,1644.77,437.69c229.84,374.36,136.22,962.85-157,1113Z"/>
    <path class="cls-2" d="M480.27,475.19c102.32-62.29,218.02-89.6,884,0,36.6,4.92,92.2,13.16,135,56,111.6,111.69,47.68,370.01-8,377-35.17,4.41-35.53-95.41-132-158-103.84-67.37-238.58-39.4-308-25-104.77,21.74-106.46,49.54-240,84-109.33,28.22-173.69,44.83-249,23-104.86-30.39-212.1-129.85-201-222,2.08-17.22,12.63-70.24,119-135Z"/>
    <path class="cls-2" d="M1147.27,794.19c15.84-13.99,42.58-13.65,56,2,8.93,10.41,11.04,26.51,5,38-12.35,23.46-57.91,26.07-71,6-8.27-12.67-3.42-34.15,10-46Z"/>
    <path class="cls-2" d="M1275.27,837.19c7.02-3.41,49.77-24.19,81,1,22.56,18.2,26.91,50.54,19,74-13.39,39.71-63.92,59.83-102,46-21.09-7.66-45.86-28.47-47-57-1.58-39.42,43.22-61.19,49-64Z"/>
    <path class="cls-2" d="M1119.27,1045.19c19.76,1.37,48.06,3.33,55,19,11.05,24.95-30.56,88.01-76,82-38.05-5.04-66.92-56.95-54-82,12.04-23.36,58.72-20.13,75-19Z"/>
    <path class="cls-2" d="M1196.27,1297.19c57.5-19.58,135.53,2.38,144,40,8.92,39.62-57.79,103.57-123,98-41.38-3.53-90.21-35.74-89-73,1.35-41.47,63.87-63.59,68-65Z"/>
    <path class="cls-2" d="M1015.27,1330.19c15-13.5,44.77-17.18,57,0,9.58,13.46,5.32,35.44-7,45-19.94,15.47-58.55-3.46-61-23-1.36-10.88,8.74-19.97,11-22Z"/>
    <path class="cls-1" d="M706.62,605.05c9.36-2.98,66.34-21.16,107.96,.87,30.06,15.91,35.87,44.2,25.32,64.72-17.85,34.73-85.2,52.33-135.95,40.23-28.12-6.7-61.12-24.9-62.64-49.85-2.1-34.47,57.6-53.52,65.31-55.97Z"/>
    <path d="M962.97,1109.74c1.93,0,1.93-3,0-3s-1.93,3,0,3h0Z"/>
    <path d="M940.06,590.46c1.93,0,1.93-3,0-3s-1.93,3,0,3h0Z"/>
  </g>
</svg>